<svg width="20" height="17" viewBox="0 0 20 17" fill="none" xmlns="http://www.w3.org/2000/svg">
<path d="M5.17871 9.82324H2.17285V15H0.476562V2.20312H4.71289C6.1543 2.20312 7.26172 2.53125 8.03516 3.1875C8.81445 3.84375 9.2041 4.79883 9.2041 6.05273C9.2041 6.84961 8.9873 7.54395 8.55371 8.13574C8.12598 8.72754 7.52832 9.16992 6.76074 9.46289L9.7666 14.8945V15H7.95605L5.17871 9.82324ZM2.17285 8.44336H4.76562C5.60352 8.44336 6.26855 8.22656 6.76074 7.79297C7.25879 7.35938 7.50781 6.7793 7.50781 6.05273C7.50781 5.26172 7.27051 4.65527 6.7959 4.2334C6.32715 3.81152 5.64746 3.59766 4.75684 3.5918H2.17285V8.44336ZM17.6152 11.7041C17.6152 11.165 17.4248 10.7109 17.0439 10.3418C16.6689 9.97266 16.0332 9.63867 15.1367 9.33984C13.8887 8.95898 12.9775 8.46387 12.4033 7.85449C11.835 7.23926 11.5508 6.45996 11.5508 5.5166C11.5508 4.55566 11.8291 3.76758 12.3857 3.15234C12.9482 2.53711 13.7188 2.1709 14.6973 2.05371V0.128906H16.0068V2.0625C16.9912 2.19727 17.7559 2.61035 18.3008 3.30176C18.8516 3.99316 19.127 4.93945 19.127 6.14062H17.5098C17.5098 5.31445 17.3135 4.6582 16.9209 4.17188C16.5283 3.68555 15.998 3.44238 15.3301 3.44238C14.6328 3.44238 14.0996 3.62402 13.7305 3.9873C13.3613 4.34473 13.1768 4.8457 13.1768 5.49023C13.1768 6.08789 13.3701 6.56543 13.7568 6.92285C14.1494 7.27441 14.791 7.59668 15.6816 7.88965C16.5781 8.17676 17.2754 8.49609 17.7734 8.84766C18.2773 9.19336 18.6465 9.59766 18.8809 10.0605C19.1211 10.5234 19.2412 11.0654 19.2412 11.6865C19.2412 12.6768 18.9424 13.4736 18.3447 14.0771C17.7529 14.6807 16.9209 15.0381 15.8486 15.1494V16.8281H14.5479V15.1494C13.458 15.0498 12.6025 14.6631 11.9814 13.9893C11.3662 13.3096 11.0586 12.3896 11.0586 11.2295H12.6846C12.6846 12.0439 12.8984 12.6709 13.3262 13.1104C13.7539 13.5498 14.3604 13.7695 15.1455 13.7695C15.9131 13.7695 16.5166 13.585 16.9561 13.2158C17.3955 12.8467 17.6152 12.3428 17.6152 11.7041Z" fill="#484848"/>
</svg>
