<svg width="21" height="18" viewBox="0 0 21 18" fill="none" xmlns="http://www.w3.org/2000/svg">
<path d="M20.0689 6.62561H14.2749C14.1753 6.62561 14.0938 6.71111 14.0938 6.81561V7.9556C14.0938 8.0601 14.1753 8.1456 14.2749 8.1456H20.0689C20.1685 8.1456 20.25 8.0601 20.25 7.9556V6.81561C20.25 6.71111 20.1685 6.62561 20.0689 6.62561ZM17.0361 9.85558H14.2749C14.1753 9.85558 14.0938 9.94108 14.0938 10.0456V11.1856C14.0938 11.2901 14.1753 11.3756 14.2749 11.3756H17.0361C17.1357 11.3756 17.2172 11.2901 17.2172 11.1856V10.0456C17.2172 9.94108 17.1357 9.85558 17.0361 9.85558ZM9.4835 4.5H8.50349C8.36317 4.5 8.25 4.61875 8.25 4.766V10.656C8.25 10.7414 8.28848 10.8198 8.35411 10.8697L11.7242 13.4489C11.8373 13.5344 11.9958 13.5107 12.0772 13.3919L12.6589 12.5583V12.5559C12.7404 12.4372 12.7155 12.2709 12.6023 12.1854L9.73472 10.01V4.766C9.73699 4.61875 9.62156 4.5 9.4835 4.5V4.5Z" fill="#484848"/>
<path d="M17.0359 12.7261H15.6922C15.562 12.7261 15.4388 12.7929 15.369 12.9034C15.0738 13.3661 14.7297 13.7943 14.3345 14.1856C13.6533 14.8601 12.8606 15.3895 11.9795 15.7579C11.0659 16.14 10.0965 16.3334 9.09681 16.3334C8.09484 16.3334 7.12541 16.14 6.21411 15.7579C5.33302 15.3895 4.54028 14.8601 3.85912 14.1856C3.17797 13.5111 2.64327 12.7261 2.27131 11.8537C1.8854 10.9513 1.69012 9.99136 1.69012 8.9992C1.69012 8.00704 1.8854 7.04941 2.27131 6.14473C2.64327 5.27227 3.17797 4.48729 3.85912 3.81281C4.54028 3.13832 5.33302 2.60886 6.21411 2.24054C7.12541 1.85841 8.09717 1.66504 9.09681 1.66504C10.0988 1.66504 11.0682 1.85841 11.9795 2.24054C12.8606 2.60886 13.6533 3.13832 14.3345 3.81281C14.7297 4.20415 15.0738 4.63232 15.369 5.09502C15.4388 5.20551 15.562 5.27227 15.6922 5.27227H17.0359C17.1963 5.27227 17.2986 5.10653 17.2265 4.96611C15.7108 1.98042 12.6374 0.0398361 9.20608 0.000702169C4.18226 -0.0614517 0.00931493 4.01078 1.58823e-05 8.98078C-0.00928317 13.96 4.06603 18 9.09449 18C12.57 18 15.6945 16.0525 17.2265 13.0323C17.2986 12.8919 17.194 12.7261 17.0359 12.7261V12.7261Z" fill="#484848"/>
</svg>
